<svg xmlns="http://www.w3.org/2000/svg" xmlns:xlink="http://www.w3.org/1999/xlink" width="1080" zoomAndPan="magnify" viewBox="0 0 810 809.999993" height="1080" preserveAspectRatio="xMidYMid meet" version="1.0"><path fill="#ffffff" d="M 443.894531 283.535156 L 443.894531 349.386719 L 526.808594 349.386719 L 515.207031 439.460938 L 443.894531 439.460938 L 443.894531 645.882812 L 353.480469 645.882812 L 353.480469 439.460938 L 276.027344 439.460938 L 276.027344 349.386719 L 353.480469 349.386719 L 353.480469 283.535156 C 353.480469 212.222656 411.140625 164.117188 482.453125 164.117188 C 513.839844 164.117188 533.632812 168.890625 533.632812 168.890625 L 533.632812 244.980469 L 482.453125 244.980469 C 461.296875 244.980469 443.894531 262.378906 443.894531 283.535156 Z M 443.894531 283.535156 " fill-opacity="1" fill-rule="nonzero"/><path fill="#ffffff" d="M 405 810 C 181.859375 810 0 628.484375 0 405 C 0 181.515625 181.859375 0 405 0 C 628.484375 0 810 181.859375 810 405 C 810 628.140625 628.484375 810 405 810 Z M 405 22.179688 C 193.800781 22.179688 22.179688 193.800781 22.179688 405 C 22.179688 616.199219 193.800781 787.820312 405 787.820312 C 616.199219 787.820312 787.820312 616.199219 787.820312 405 C 787.820312 193.800781 616.199219 22.179688 405 22.179688 Z M 405 22.179688 " fill-opacity="1" fill-rule="nonzero"/></svg>