<svg xmlns="http://www.w3.org/2000/svg" xmlns:xlink="http://www.w3.org/1999/xlink" width="1080" zoomAndPan="magnify" viewBox="0 0 810 809.999993" height="1080" preserveAspectRatio="xMidYMid meet" version="1.0"><path fill="#ffffff" d="M 510.769531 172.304688 L 299.570312 172.304688 C 229.625 172.304688 172.644531 229.285156 172.644531 299.230469 L 172.644531 510.429688 C 172.644531 580.375 229.625 637.355469 299.570312 637.355469 L 510.769531 637.355469 C 580.714844 637.355469 637.695312 580.375 637.695312 510.429688 L 637.695312 299.570312 C 637.695312 229.285156 580.714844 172.304688 510.769531 172.304688 Z M 597.777344 510.769531 C 597.777344 558.878906 558.878906 597.777344 510.769531 597.777344 L 299.570312 597.777344 C 251.460938 597.777344 212.222656 558.878906 212.222656 510.769531 L 212.222656 299.570312 C 212.222656 251.460938 251.460938 212.222656 299.570312 212.222656 L 510.769531 212.222656 C 558.878906 212.222656 597.777344 251.121094 597.777344 299.570312 Z M 597.777344 510.769531 " fill-opacity="1" fill-rule="nonzero"/><path fill="#ffffff" d="M 560.585938 277.734375 C 560.585938 293.429688 547.960938 306.394531 531.925781 306.394531 C 516.230469 306.394531 503.265625 293.769531 503.265625 277.734375 C 503.265625 262.039062 515.890625 249.074219 531.925781 249.074219 C 547.960938 249.414062 560.585938 262.039062 560.585938 277.734375 Z M 560.585938 277.734375 " fill-opacity="1" fill-rule="nonzero"/><path fill="#ffffff" d="M 405 286.605469 C 339.832031 286.605469 286.605469 339.832031 286.605469 405 C 286.605469 470.167969 339.832031 523.394531 405 523.394531 C 470.167969 523.394531 523.394531 470.167969 523.394531 405 C 523.394531 339.832031 470.507812 286.605469 405 286.605469 Z M 405 483.476562 C 361.667969 483.476562 326.523438 448.332031 326.523438 405 C 326.523438 361.667969 361.667969 326.523438 405 326.523438 C 448.332031 326.523438 483.476562 361.667969 483.476562 405 C 483.476562 448.332031 448.332031 483.476562 405 483.476562 Z M 405 483.476562 " fill-opacity="1" fill-rule="nonzero"/><path fill="#ffffff" d="M 405 810 C 181.859375 810 0 628.484375 0 405 C 0 181.859375 181.859375 0 405 0 C 628.484375 0 810 181.859375 810 405 C 810 628.484375 628.484375 810 405 810 Z M 405 22.179688 C 193.800781 22.179688 22.179688 193.800781 22.179688 405 C 22.179688 616.199219 193.800781 787.820312 405 787.820312 C 616.199219 787.820312 787.820312 616.199219 787.820312 405 C 787.820312 193.800781 616.199219 22.179688 405 22.179688 Z M 405 22.179688 " fill-opacity="1" fill-rule="nonzero"/></svg>